<svg width="15" height="14" viewBox="0 0 15 14" fill="none" xmlns="http://www.w3.org/2000/svg">
<g clip-path="url(#clip0_1_12)">
<path d="M8.65062 9.04249L6.16698 9.04477L6.16813 12.1481C6.16813 12.592 6.14 12.9892 5.58897 13.0302C5.30772 13.0513 5.019 13.0399 4.7366 13.0399H2.37579C1.43675 13.0399 1.39198 12.8501 1.39083 12.0449L1.38394 7.16774C0.95288 7.59911 0.834639 7.74499 0.336418 7.26576C-0.146305 6.80191 -0.0980902 6.64122 0.40874 6.19333L7.14792 0.154809C7.23976 0.0784515 7.32413 0.0271665 7.4441 0.00551282C7.50953 -0.00132518 7.6008 -0.00474417 7.66049 0.0260268L7.6714 0.0317251C7.86942 0.134295 8.03473 0.316072 8.19946 0.463659L10.5419 2.56463L10.5453 2.15777C10.5499 1.65917 10.7577 1.50588 11.268 1.50246C11.5693 1.50018 11.9005 1.49848 12.0119 1.84265L12.0171 1.85861C12.0406 1.93212 12.0377 2.01531 12.0394 2.09167L12.0532 3.86271C12.0561 3.92995 12.0412 3.93679 12.0945 3.97839L14.8508 6.43437C15.2038 6.77798 14.8583 7.09879 14.5891 7.34781C14.1907 7.71592 13.9405 7.49426 13.6236 7.14951L13.6294 11.829C13.6294 12.5361 13.7316 13.0268 12.8465 13.0399H9.7917C8.93187 13.0399 8.86414 12.8233 8.86299 12.0774L8.86185 9.05104C8.80904 9.0311 8.71031 9.04363 8.65177 9.04307L8.65062 9.04249ZM7.51298 1.71957L2.77012 5.94146L2.77357 11.6632L4.7917 11.6552L4.79343 8.58549C4.794 7.90454 4.91683 7.65666 5.61021 7.65666L7.50666 7.6578H9.46568C10.1418 7.6578 10.24 7.93873 10.24 8.58321L10.2417 11.6569L12.2266 11.6586C12.2432 11.6136 12.2369 11.5435 12.2375 11.4939V6.07651C12.2375 6.03947 12.2432 5.99503 12.2317 5.9597L7.51298 1.71957Z" fill="white" fill-opacity="0.6"/>
</g>
<defs>
<clipPath id="clip0_1_12">
<rect width="15" height="13.0435" fill="white"/>
</clipPath>
</defs>
</svg>
